<?xml version="1.0" standalone="no"?>
<!DOCTYPE svg PUBLIC "-//W3C//DTD SVG 20010904//EN"
 "http://www.w3.org/TR/2001/REC-SVG-20010904/DTD/svg10.dtd">
<svg version="1.0" xmlns="http://www.w3.org/2000/svg"
 width="300.000000pt" height="300.000000pt" viewBox="0 0 300.000000 300.000000"
 preserveAspectRatio="xMidYMid meet">
<metadata>
Created by potrace 1.10, written by Peter Selinger 2001-2011
</metadata>
<g transform="translate(0.000000,300.000000) scale(0.100000,-0.100000)"
fill="#000000" stroke="none">
<path d="M1689 2936 c-8 -8 -38 -21 -67 -31 -30 -9 -69 -31 -88 -47 -25 -22
-34 -26 -34 -14 0 8 10 24 22 36 13 12 17 20 9 20 -18 0 -81 -67 -81 -86 0 -8
5 -12 10 -9 6 3 10 12 10 20 0 8 5 17 12 21 8 5 9 -5 5 -36 l-5 -43 20 34 c25
41 27 44 33 38 2 -3 1 -19 -4 -36 -5 -17 -5 -36 0 -44 6 -10 9 -6 9 14 0 16 9
41 20 57 11 15 16 31 12 35 -4 5 -2 5 4 2 6 -3 27 5 47 18 49 34 61 32 42 -6
-10 -18 -14 -41 -10 -58 5 -22 2 -27 -15 -28 -22 -2 -65 -29 -65 -41 0 -15
-45 -65 -53 -58 -4 4 -12 22 -19 39 -7 19 -12 25 -12 14 -1 -23 27 -77 40 -77
5 0 15 12 21 28 l12 27 4 -35 c2 -19 7 -39 12 -43 4 -5 6 11 3 35 -4 34 0 49
17 71 12 15 26 27 32 27 6 0 5 -8 -4 -17 -20 -24 -30 -53 -18 -53 6 0 10 6 10
13 0 18 60 73 90 82 24 7 24 7 10 -12 -12 -15 -11 -15 5 2 17 17 33 20 98 20
l79 0 -26 -21 c-13 -12 -22 -25 -18 -29 4 -4 -16 -6 -44 -4 -39 2 -64 -4 -107
-25 -54 -26 -97 -66 -97 -89 0 -6 7 -2 16 9 15 19 16 19 10 -1 -5 -15 -1 -13
15 8 36 47 99 77 162 77 l55 0 56 -67 c31 -37 56 -73 56 -80 0 -24 1 -28 17
-45 9 -10 23 -18 32 -18 15 1 15 2 0 13 -21 16 -52 77 -40 77 5 0 -19 30 -54
67 l-64 67 34 42 c40 48 44 59 16 44 -11 -5 -65 -10 -120 -10 -56 0 -103 -4
-106 -10 -3 -5 -10 -10 -16 -10 -16 0 -10 54 11 95 22 42 21 52 -1 31z"/>
<path d="M1456 2907 c-43 -56 -48 -80 -25 -124 l20 -38 -7 52 c-6 54 2 80 39
121 11 12 15 22 9 22 -6 0 -22 -15 -36 -33z"/>
<path d="M1340 2870 c-11 -22 -23 -60 -27 -85 l-6 -45 -61 -1 c-33 0 -70 -4
-81 -8 -17 -7 -16 -9 10 -15 31 -8 65 -33 65 -48 0 -4 -8 -8 -17 -8 -18 -1
-53 -22 -53 -33 0 -3 15 -3 34 0 45 7 51 -6 36 -78 -13 -61 -16 -65 -39 -50
-13 8 -12 15 4 50 10 23 15 44 11 48 -8 8 -30 -20 -57 -76 -20 -39 -21 -45 -7
-55 14 -10 14 -14 2 -30 -21 -29 -8 -176 17 -198 45 -39 10 -286 -51 -360 -21
-25 -43 -39 -76 -47 -54 -14 -130 -51 -192 -93 -32 -22 -57 -31 -90 -32 -31
-1 -74 -14 -126 -39 -43 -20 -83 -37 -89 -37 -23 0 -76 -52 -122 -119 l-48
-70 13 -78 c17 -109 46 -179 95 -232 23 -26 50 -68 60 -96 30 -82 80 -176 130
-244 26 -35 78 -125 115 -200 38 -75 96 -179 130 -230 l61 -93 9 -126 c5 -70
10 -130 10 -134 0 -5 6 -8 13 -8 9 0 11 29 7 127 l-5 128 -40 60 c-32 47 -165
300 -184 350 -12 32 139 -133 185 -202 55 -83 63 -89 129 -95 17 -2 30 -9 30
-15 0 -7 9 -19 20 -27 23 -15 277 -126 291 -126 5 0 17 -19 26 -42 28 -65 31
-38 5 36 -16 42 -20 66 -13 66 23 1 -92 55 -182 85 -90 31 -92 32 -60 40 18 4
38 7 45 6 13 -2 59 21 133 68 41 26 47 27 68 13 19 -12 27 -13 46 -2 35 18 56
9 71 -30 7 -19 33 -91 59 -159 40 -109 46 -135 47 -205 0 -55 3 -74 9 -61 5
11 9 58 9 105 0 70 -4 96 -25 145 -44 103 -61 149 -69 182 l-7 33 42 0 c23 0
51 -5 63 -12 12 -6 57 -24 100 -38 l78 -27 -52 -61 c-36 -41 -56 -57 -61 -49
-5 8 -8 5 -8 -9 0 -12 -3 -42 -6 -68 -5 -31 -3 -46 5 -46 6 0 11 4 11 9 0 5
24 34 53 63 30 30 60 65 67 78 7 14 -16 -3 -54 -40 -53 -52 -66 -60 -66 -43 0
13 19 38 49 64 27 24 55 56 61 71 15 33 40 45 40 19 0 -10 -3 -21 -7 -25 -4
-3 -8 -33 -10 -64 -3 -43 4 -84 27 -156 16 -54 30 -109 30 -122 0 -15 6 -24
16 -24 21 0 14 37 -28 169 -29 91 -30 96 -17 171 l12 77 28 -14 c18 -9 34 -11
44 -5 10 5 38 3 73 -6 48 -12 68 -12 127 -2 38 7 103 12 144 11 106 -2 136 10
165 67 37 76 39 96 12 129 -30 36 -166 340 -205 460 -33 102 -58 170 -72 196
-6 10 -12 43 -13 73 -6 88 -62 169 -191 273 l-73 59 -72 0 c-64 0 -78 4 -128
35 -32 19 -82 47 -112 62 -30 15 -56 29 -58 30 -5 4 80 170 122 240 26 43 43
60 58 60 44 0 158 218 158 303 0 37 0 37 -31 -28 -21 -45 -33 -60 -38 -51 -5
8 -1 31 11 57 10 25 16 49 13 54 -3 5 10 20 30 32 20 14 33 29 30 37 -4 10 1
12 22 6 l28 -6 -32 33 c-31 32 -46 67 -22 52 20 -12 -8 29 -40 61 -27 25 -41
30 -97 33 -41 3 -70 0 -77 -7 -8 -8 -3 -11 21 -11 18 0 32 -4 32 -10 0 -5 18
-10 39 -10 57 0 91 -15 91 -40 0 -12 5 -30 10 -41 14 -25 6 -24 -37 6 -20 13
-39 22 -42 19 -3 -3 1 -9 9 -14 18 -10 80 -68 80 -75 0 -3 -10 -5 -23 -5 -22
0 -73 -29 -51 -30 5 0 16 6 24 13 7 6 4 -2 -8 -19 -12 -17 -19 -33 -17 -36 12
-11 -21 -75 -51 -101 -37 -31 -74 -118 -74 -174 0 -36 -57 -154 -82 -169 -7
-5 -9 -2 -5 7 58 134 79 216 53 205 -6 -3 -34 -12 -63 -21 l-52 -16 -68 55
c-37 31 -71 56 -76 56 -4 0 -7 10 -5 22 2 11 -3 23 -9 25 -8 3 -13 -5 -13 -21
0 -24 -3 -26 -44 -26 -25 0 -57 -5 -72 -10 -23 -9 -33 -7 -55 9 l-27 20 -11
-50 c-6 -27 -11 -71 -12 -97 0 -40 -2 -44 -10 -23 -6 15 -6 44 0 80 6 31 15
101 21 155 9 90 35 206 45 206 3 0 12 -14 20 -31 23 -43 69 -60 134 -50 28 4
51 8 51 7 0 -1 -7 -22 -15 -49 -8 -26 -11 -55 -8 -64 5 -13 1 -12 -16 4 -34
31 -126 73 -163 73 -29 0 -30 -2 -24 -32 3 -17 18 -51 32 -75 20 -35 30 -43
54 -43 37 0 80 17 95 37 8 11 14 13 19 5 13 -22 23 -12 18 18 -6 41 17 129 39
151 25 25 46 15 70 -33 27 -53 71 -78 134 -77 28 1 55 0 60 -2 6 -2 27 0 47 4
44 9 64 37 48 67 -5 10 -9 34 -8 52 2 22 -1 32 -9 31 -7 -2 -10 3 -7 11 8 21
-69 83 -114 91 -41 7 -117 -8 -127 -25 -14 -22 -54 -9 -81 25 -41 54 -80 78
-127 78 -27 0 -46 6 -54 16 -14 18 -16 86 -3 116 7 16 9 14 9 -15 1 -41 20
-81 41 -88 13 -5 13 -3 0 14 -14 18 -14 18 6 2 28 -25 36 -22 22 7 -6 13 -14
22 -18 20 -23 -14 -47 72 -30 104 7 14 7 21 1 21 -6 0 -20 -18 -31 -40z m3
-157 c6 -3 -58 -63 -68 -63 -1 0 -9 8 -16 17 -10 11 -10 14 -1 9 6 -4 12 -3
12 3 0 6 -13 17 -30 26 -16 9 -30 18 -30 22 0 6 120 -6 133 -14z m107 -28 c95
-49 90 -177 -7 -204 -67 -19 -88 -14 -127 29 -51 56 -50 98 3 151 43 43 80 50
131 24z m318 -81 c29 -20 52 -66 52 -103 0 -71 -96 -122 -170 -91 -33 14 -70
73 -70 112 0 28 33 80 57 90 33 12 108 8 131 -8z m-181 -24 c-2 -3 -9 -19 -16
-36 -9 -25 -17 -31 -32 -27 -13 4 -18 11 -15 20 3 8 6 23 6 32 0 14 8 18 30
17 16 -1 29 -3 27 -6z m-387 -109 c0 -9 -7 -25 -15 -35 -8 -11 -13 -29 -10
-40 3 -12 2 -15 -1 -7 -5 11 -8 11 -15 0 -16 -25 -10 13 7 46 10 19 11 31 5
33 -21 7 -12 30 9 25 11 -3 20 -13 20 -22z m644 -52 c-10 -11 -27 -19 -38 -19
-12 0 -16 3 -10 8 6 4 19 23 29 42 18 34 18 34 27 11 6 -18 4 -29 -8 -42z
m-635 -26 c-4 -27 -10 -70 -14 -97 -6 -44 -8 -47 -22 -33 -15 14 -14 21 1 76
9 34 14 66 10 73 -4 7 -3 8 4 4 7 -4 12 -1 12 8 0 9 4 16 9 16 4 0 5 -21 0
-47z m83 8 c-2 -9 3 -9 16 -2 14 8 19 6 19 -5 0 -7 -9 -14 -19 -14 -10 0 -18
-7 -18 -15 0 -17 16 -20 25 -5 9 15 35 12 35 -4 0 -23 28 -40 43 -27 8 6 18 7
23 3 4 -4 2 2 -6 12 -8 11 -28 27 -45 38 -16 10 -25 18 -19 18 20 0 79 -45 79
-60 0 -20 -65 -51 -91 -44 -13 3 -32 26 -48 57 -31 62 -32 70 -8 65 9 -2 16
-10 14 -17z m634 -95 c-9 -14 -16 -34 -16 -45 0 -11 -15 -35 -32 -54 -18 -20
-41 -48 -50 -63 -38 -66 -55 -29 -23 50 26 64 54 101 67 88 4 -4 3 -23 -2 -42
l-10 -35 19 25 c11 13 17 28 15 31 -5 9 37 82 44 75 2 -3 -3 -17 -12 -30z
m-581 -78 c95 19 111 16 168 -30 28 -24 58 -49 66 -57 15 -13 76 -11 114 4 12
5 17 2 17 -9 0 -25 -60 -170 -78 -188 -9 -9 -51 -34 -92 -55 -58 -29 -86 -38
-125 -37 -74 0 -92 15 -138 112 -34 73 -41 97 -41 152 -1 36 2 77 7 92 6 24
10 26 26 16 14 -8 32 -8 76 0z m-121 -200 c3 -18 7 -67 10 -108 2 -41 12 -104
21 -139 19 -75 72 -197 82 -188 3 4 1 12 -4 19 -30 40 -73 209 -72 288 l0 55
19 -37 c29 -54 65 -78 119 -79 25 -1 37 -4 26 -6 -19 -4 -20 -12 -19 -160 0
-162 7 -186 38 -141 12 17 16 49 16 140 0 64 4 127 9 140 5 15 33 37 72 57 35
18 78 44 96 57 17 13 34 24 37 24 3 0 -24 -58 -59 -130 -36 -71 -65 -137 -64
-147 0 -10 12 8 26 39 20 46 28 55 42 48 9 -4 31 -14 49 -21 19 -7 60 -29 93
-50 49 -32 59 -43 59 -66 0 -42 52 -124 115 -181 73 -67 89 -67 31 0 -37 42
-106 160 -106 181 0 3 18 8 40 12 34 6 49 2 97 -25 118 -67 228 -188 233 -255
4 -60 2 -69 -16 -54 -10 8 -12 15 -5 17 19 6 1 22 -25 22 -13 0 -52 11 -86 25
-34 14 -63 23 -65 21 -6 -5 69 -56 82 -56 5 0 34 -12 63 -27 47 -24 58 -35 79
-83 37 -82 68 -175 88 -265 18 -86 38 -136 30 -75 -5 33 -5 34 7 10 22 -46
109 -245 111 -254 1 -5 -38 -23 -88 -40 -84 -29 -90 -33 -91 -58 0 -16 -1 -47
-2 -71 l-2 -43 -60 -13 c-54 -12 -190 -8 -190 5 0 3 11 20 25 39 55 71 77 185
56 278 l-9 39 36 -6 c89 -16 112 -18 112 -9 0 5 -17 14 -37 19 -36 9 -38 11
-38 51 0 28 -7 49 -21 65 -12 13 -34 47 -48 76 l-26 52 -49 0 c-55 0 -69 17
-56 68 3 14 1 64 -6 109 -11 76 -11 84 6 103 25 27 12 37 -14 11 -23 -23 -25
-53 -12 -134 5 -28 4 -64 -2 -86 -9 -34 -16 -40 -71 -62 -34 -13 -64 -25 -67
-27 -3 -1 -9 22 -12 52 -6 63 -29 113 -65 143 l-26 22 22 24 c32 34 27 42 -9
16 -30 -21 -33 -22 -78 -6 -79 27 -108 29 -164 13 -40 -12 -65 -27 -95 -60
-67 -73 -90 -195 -47 -253 19 -24 18 -33 0 -33 -17 0 -18 3 -35 68 -9 34 -17
45 -45 57 -19 7 -35 20 -35 28 0 11 -58 71 -142 146 l-27 24 -35 -27 c-19 -14
-40 -26 -47 -26 -21 0 -49 32 -49 57 0 12 -4 23 -9 23 -5 0 -12 8 -15 18 -8
23 -43 62 -57 62 -6 0 -2 -12 9 -27 11 -16 33 -56 50 -90 26 -50 29 -62 17
-67 -8 -3 -15 -17 -15 -30 0 -30 31 -50 63 -41 21 7 21 6 4 -7 -12 -9 -18 -23
-15 -39 2 -18 10 -25 35 -29 26 -4 31 -8 23 -20 -5 -8 -10 -25 -10 -37 0 -18
6 -23 24 -23 37 0 39 -15 6 -50 -43 -46 -29 -50 19 -7 52 47 77 52 125 29 38
-19 39 -19 13 -26 -15 -3 -31 -15 -37 -27 -11 -19 -8 -18 38 5 32 16 75 27
124 32 l75 6 30 -37 c40 -48 73 -136 72 -188 -3 -84 -9 -93 -113 -172 -55 -41
-102 -75 -105 -76 -35 -5 -52 -10 -90 -24 -27 -10 -66 -15 -104 -13 l-60 3
-63 93 c-59 85 -78 132 -55 132 5 0 16 -11 25 -25 9 -13 37 -45 64 -70 39 -38
47 -52 47 -82 0 -20 5 -38 11 -40 6 -2 10 6 8 19 -1 13 -3 33 -3 46 -1 15 -24
46 -63 84 -35 33 -58 59 -53 57 6 -2 33 -16 60 -30 62 -33 105 -46 175 -54 73
-8 85 -16 82 -59 -3 -43 5 -46 19 -9 20 54 8 67 -88 86 -132 27 -160 37 -219
79 -60 41 -81 41 -86 -3 -3 -28 -5 -27 -95 59 -50 48 -108 109 -128 136 -33
45 -104 175 -125 231 -14 36 25 101 124 208 57 63 86 102 82 112 -3 8 0 14 6
12 21 -4 49 123 47 218 -2 87 -1 90 27 111 16 12 72 38 124 58 129 49 141 56
169 99 13 20 26 35 28 33 2 -2 -3 -31 -11 -65 -8 -33 -11 -61 -6 -61 11 0 29
79 43 191 12 101 22 124 31 67z m223 -330 c-8 -184 -25 -205 -21 -28 2 80 4
146 4 148 0 1 5 2 11 2 9 0 10 -34 6 -122z m-670 -100 c-3 -51 -15 -135 -27
-185 -21 -90 -23 -94 -70 -130 -51 -41 -137 -155 -132 -176 2 -6 -17 8 -43 33
-50 50 -81 126 -92 232 -3 32 -10 55 -15 52 -13 -9 -5 16 14 40 10 11 32 41
50 66 34 46 122 98 241 140 83 30 81 33 74 -72z m895 -359 l26 -11 -63 -60
c-62 -58 -125 -142 -125 -168 0 -9 9 -11 30 -6 35 6 37 0 11 -31 -17 -20 -29
-23 -89 -23 -82 0 -93 9 -100 81 -8 90 44 184 123 221 44 21 139 19 187 -3z
m-574 -40 c17 -11 15 -15 -24 -51 -40 -37 -46 -39 -84 -33 -52 9 -51 28 4 49
25 9 50 24 56 32 15 17 25 18 48 3z m698 -76 c8 -18 14 -50 14 -71 0 -34 -4
-41 -37 -59 -40 -22 -142 -47 -151 -38 -3 3 16 27 42 54 51 52 50 66 -4 51
-19 -5 -36 -8 -38 -5 -2 2 20 37 49 79 l54 75 29 -27 c16 -15 35 -41 42 -59z
m-139 25 c-29 -39 -57 -92 -57 -109 0 -7 9 -9 25 -5 14 4 25 4 25 0 0 -18 -58
-84 -74 -84 -17 0 -17 1 -2 25 21 33 20 44 -4 38 -39 -10 -21 33 41 101 66 71
84 85 46 34z m-487 -10 c8 -8 24 -25 35 -38 11 -14 14 -20 7 -14 -18 15 -88
-9 -123 -42 -22 -22 -29 -23 -57 -13 -18 6 -32 16 -32 22 0 7 27 36 61 64 63
55 68 56 109 21z m85 -99 c30 -17 55 -37 55 -45 0 -10 -10 -7 -38 11 l-39 25
-69 -25 c-38 -15 -73 -32 -79 -39 -12 -15 -35 -10 -35 8 0 28 94 96 133 96 9
0 42 -14 72 -31z m793 -36 c52 -5 53 -6 77 -58 14 -28 34 -60 45 -70 13 -11
20 -31 20 -53 l0 -35 -86 5 c-47 2 -87 1 -90 -4 -10 -16 -25 -7 -19 11 11 35
-34 119 -83 157 -43 33 -44 34 -21 42 13 5 31 12 39 15 8 3 26 4 40 1 14 -3
49 -8 78 -11z m-783 -13 c10 -11 26 -22 36 -25 18 -6 36 -42 26 -52 -3 -3 -27
10 -54 28 -37 25 -43 27 -28 10 11 -13 29 -27 40 -32 13 -6 5 -7 -25 -3 -24 4
-55 13 -67 21 -13 9 -33 13 -45 10 -34 -9 -43 -8 -43 4 0 10 105 57 131 58 6
1 19 -8 29 -19z m573 -2 c9 -9 -2 -17 -50 -36 -35 -13 -85 -28 -111 -32 -74
-14 -187 -52 -187 -63 0 -6 -9 -2 -20 8 -11 10 -17 22 -13 25 17 16 139 50
176 50 53 0 127 19 157 41 30 22 33 22 48 7z m61 -44 c17 -14 41 -39 53 -56
l21 -31 -24 -20 c-28 -23 -146 -83 -273 -139 -143 -63 -139 -62 -130 -36 4 13
12 26 18 30 7 5 5 8 -5 8 -23 0 -47 84 -30 104 10 12 9 14 -7 9 -20 -5 -35 16
-24 34 8 12 163 63 195 64 12 0 54 13 92 29 39 16 73 29 77 29 3 1 20 -11 37
-25z m81 -141 c0 -20 -7 -45 -17 -55 -23 -26 -40 -22 -18 5 11 12 1 4 -21 -19
-21 -22 -64 -55 -94 -73 -30 -17 -89 -52 -130 -77 -101 -62 -190 -98 -203 -85
-8 8 -7 11 4 11 9 0 45 14 80 31 89 44 329 179 329 186 0 2 -28 -11 -62 -30
-118 -66 -311 -167 -330 -173 -19 -6 -19 -5 -2 28 9 18 20 43 23 56 5 18 25
31 81 53 108 43 316 147 330 164 20 24 30 17 30 -22z m95 -33 c23 0 61 -27 51
-37 -2 -2 -27 2 -55 11 -29 8 -49 11 -46 7 3 -5 28 -15 56 -21 l51 -13 -4 -76
c-7 -112 -72 -231 -126 -231 -19 0 -23 3 -13 9 9 6 -3 11 -35 15 -27 4 -74 14
-104 22 -61 17 -190 73 -190 83 1 14 204 120 214 112 15 -12 187 -63 193 -57
4 4 -89 34 -160 52 -31 7 -42 20 -27 29 10 6 143 -36 193 -61 15 -8 27 -12 27
-9 0 9 -94 52 -130 60 -62 13 -67 21 -27 40 21 9 37 20 37 24 0 17 43 52 57
47 8 -3 25 -6 38 -6z m459 -190 c25 -9 25 -10 12 -48 -26 -72 -44 -99 -73
-107 -55 -13 -98 -15 -124 -5 -27 11 -27 16 -13 108 5 31 7 32 52 32 26 1 61
7 77 15 38 17 38 17 69 5z m-1322 -231 c22 -11 52 -23 65 -25 41 -8 132 -45
148 -60 21 -22 20 -45 -3 -36 -140 56 -272 119 -272 129 0 18 14 16 62 -8z"/>
<path d="M1373 2673 c-31 -6 -63 -50 -63 -85 0 -40 48 -88 88 -88 33 0 87 39
97 70 9 27 -20 77 -55 95 -16 8 -33 14 -37 14 -4 -1 -18 -4 -30 -6z m105 -86
c3 -39 -7 -47 -28 -22 -7 8 -9 15 -6 15 4 0 -2 13 -13 29 -28 39 -27 43 12 28
27 -11 32 -19 35 -50z m-60 23 c13 -16 19 -30 14 -30 -4 0 -21 14 -37 30 -20
21 -24 30 -14 30 8 0 25 -13 37 -30z m-16 -31 c51 -33 58 -46 32 -56 -10 -4
-30 8 -55 33 -62 61 -53 71 23 23z"/>
<path d="M1639 2571 c-35 -35 -38 -77 -9 -113 36 -46 110 -44 151 5 23 27 24
49 4 87 -30 59 -98 68 -146 21z m70 -3 c11 -10 13 -10 7 0 -12 21 14 13 39
-13 25 -24 35 -75 15 -75 -5 0 -10 4 -10 8 0 5 -20 23 -45 41 -25 18 -45 36
-45 42 0 13 24 11 39 -3z m-43 -23 c-4 -11 9 -25 44 -47 40 -24 48 -34 39 -44
-18 -21 -31 -16 -72 31 -35 40 -42 75 -15 75 6 0 7 -7 4 -15z m18 -104 c-7 -8
-44 32 -44 48 0 11 8 6 24 -14 13 -16 22 -32 20 -34z"/>
<path d="M1430 2208 c-7 -12 -21 -30 -32 -39 -17 -13 -18 -19 -9 -37 17 -32
41 -40 91 -32 l45 7 -46 2 c-47 1 -93 31 -70 46 14 8 44 65 38 72 -3 2 -11 -6
-17 -19z"/>
<path d="M1298 2205 c-9 -15 -31 -135 -25 -141 8 -8 39 101 35 127 -1 13 -6
20 -10 14z"/>
<path d="M1648 2105 c-13 -20 -48 -120 -48 -135 1 -8 14 14 31 50 16 35 28 71
27 80 -2 9 -6 11 -10 5z"/>
<path d="M1312 2080 c2 -8 24 -24 48 -37 35 -19 59 -23 125 -23 61 0 86 4 95
15 8 9 9 15 2 15 -6 0 -14 -5 -18 -11 -8 -14 -121 -6 -137 10 -14 14 -30 14
-21 0 10 -16 -35 -1 -70 24 -19 13 -27 16 -24 7z"/>
<path d="M1192 1799 c-6 -14 -16 -44 -23 -67 -12 -42 -12 -42 -103 -71 -50
-16 -115 -34 -143 -41 -29 -6 -53 -16 -53 -21 0 -11 28 -5 115 21 33 10 74 21
90 24 59 13 86 29 103 63 l18 34 27 -21 c15 -12 27 -17 27 -11 0 5 -4 13 -10
16 -5 3 -16 27 -24 53 -13 46 -14 46 -24 21z"/>
<path d="M1605 1640 c3 -5 14 -10 23 -10 29 -1 87 -36 84 -50 -3 -11 0 -11 12
0 24 19 20 24 -29 48 -47 23 -101 30 -90 12z"/>
<path d="M980 1605 c0 -2 20 -16 45 -31 59 -34 165 -68 285 -90 61 -11 108
-26 132 -41 20 -14 43 -23 50 -21 7 3 -5 16 -28 32 -28 18 -78 34 -160 52
-129 27 -228 54 -222 60 2 2 32 -3 67 -12 35 -8 66 -12 69 -10 6 6 -92 33
-151 42 -26 3 -50 10 -53 15 -5 9 -34 13 -34 4z"/>
<path d="M1786 1592 c-12 -20 -115 -82 -136 -82 -28 0 -73 -26 -89 -52 -19
-30 -6 -32 22 -4 20 20 36 26 70 26 30 0 53 7 77 25 19 14 30 25 25 25 -5 0 4
13 20 30 16 16 26 32 23 36 -3 3 -9 1 -12 -4z"/>
<path d="M1933 1569 c-17 -17 -5 -43 13 -29 10 9 21 6 47 -12 67 -47 134 -104
160 -137 23 -30 27 -31 27 -13 0 24 -49 72 -152 150 -75 56 -78 58 -95 41z"/>
<path d="M950 1336 c-12 -33 -13 -56 -1 -56 10 0 25 69 17 77 -3 3 -10 -6 -16
-21z"/>
<path d="M2135 1255 c4 -16 9 -41 11 -55 13 -72 92 -290 106 -290 4 0 8 -6 8
-14 0 -8 16 -43 36 -78 31 -53 37 -73 38 -125 1 -58 2 -60 15 -36 20 39 6 96
-50 202 -50 94 -121 282 -133 352 -4 19 -13 44 -22 55 -15 18 -15 17 -9 -11z"/>
<path d="M650 1139 c0 -14 28 -73 56 -117 8 -12 19 -20 25 -16 6 4 4 13 -7 25
-9 10 -14 19 -10 19 4 0 -2 13 -13 29 -12 16 -21 33 -21 39 0 5 -7 15 -15 22
-12 10 -15 10 -15 -1z"/>
<path d="M570 1051 c0 -17 81 -79 144 -112 l62 -32 62 -126 c34 -69 62 -118
62 -109 0 28 -41 131 -65 163 -12 17 -25 40 -29 51 -4 12 -35 38 -70 59 -34
20 -86 54 -114 75 -29 22 -52 36 -52 31z"/>
<path d="M694 1556 c-33 -15 -104 -80 -104 -96 0 -17 13 -11 35 14 12 14 46
41 75 60 55 36 52 47 -6 22z"/>
<path d="M545 1431 c-49 -6 -49 -7 -18 -14 28 -7 73 4 73 18 0 3 -1 4 -2 3 -2
0 -25 -4 -53 -7z"/>
<path d="M457 1413 c-13 -12 -7 -54 9 -60 23 -8 38 12 30 41 -6 25 -25 34 -39
19z"/>
<path d="M626 1374 c-17 -17 -12 -40 12 -49 20 -8 45 17 37 37 -9 24 -32 29
-49 12z"/>
<path d="M512 1238 c-20 -20 -15 -58 8 -58 19 0 28 24 13 33 -5 2 -2 2 5 1 6
-2 12 5 12 16 0 22 -20 26 -38 8z"/>
<path d="M1090 1091 c-14 -11 -36 -21 -50 -24 -22 -4 -22 -4 6 -6 21 -1 38 7
54 24 28 30 24 31 -10 6z"/>
<path d="M1770 921 c-88 -31 -224 -91 -217 -97 2 -2 49 17 105 41 57 25 133
54 170 64 37 11 58 20 47 20 -11 0 -58 -12 -105 -28z"/>
<path d="M1845 829 c-49 -27 -121 -62 -160 -79 -38 -17 -57 -28 -40 -25 41 9
244 107 275 133 35 30 27 27 -75 -29z"/>
<path d="M1755 545 c26 -20 104 -43 169 -50 42 -4 37 -2 -30 14 -44 11 -98 26
-120 35 -34 14 -36 14 -19 1z"/>
<path d="M2465 474 c-51 -45 -52 -58 -2 -25 28 18 62 59 56 66 -2 1 -26 -17
-54 -41z"/>
<path d="M1753 2704 c-15 -15 -21 -22 -13 -16 8 5 31 17 50 25 28 12 31 16 13
16 -12 1 -35 -11 -50 -25z"/>
<path d="M1553 2352 c-18 -2 -33 -9 -33 -16 0 -20 55 -91 90 -116 31 -22 32
-22 77 -5 58 22 108 66 100 87 -11 30 -150 60 -234 50z m27 -26 c0 -21 -21
-31 -31 -15 -14 22 -11 29 11 29 11 0 20 -6 20 -14z m128 -1 c62 -19 72 -32
43 -56 -21 -17 -22 -17 -46 7 -13 13 -31 24 -40 24 -9 0 -14 4 -11 9 6 9 -16
21 -37 21 -7 0 -6 -4 3 -10 12 -8 11 -10 -7 -10 -25 0 -31 15 -10 23 22 10 53
7 105 -8z m-68 -37 c0 -5 5 -6 12 -2 7 4 8 3 4 -5 -5 -7 -17 -9 -29 -5 -18 5
-20 4 -10 -7 10 -10 18 -10 38 -1 21 10 26 9 35 -8 9 -17 7 -22 -15 -30 -15
-6 -32 -10 -38 -9 -8 0 -7 3 1 6 9 3 -2 13 -27 24 -41 18 -52 34 -28 42 22 8
57 5 57 -5z"/>
<path d="M1210 266 c0 -5 14 -51 30 -103 17 -51 30 -109 30 -128 0 -20 5 -35
11 -35 16 0 5 99 -17 165 -17 49 -54 118 -54 101z"/>
<path d="M1864 170 c3 -25 9 -73 12 -108 4 -34 11 -62 15 -62 13 0 10 78 -5
143 -17 71 -31 88 -22 27z"/>
</g>
</svg>
